<?xml version="1.0" encoding="UTF-8"?>
<svg version="1.1" xmlns="http://www.w3.org/2000/svg" width="1024" height="1024">
<path d="M0 0 C337.92 0 675.84 0 1024 0 C1024 337.92 1024 675.84 1024 1024 C686.08 1024 348.16 1024 0 1024 C0 686.08 0 348.16 0 0 Z " fill="#FCFDFD" transform="translate(0,0)"/>
<path d="M0 0 C0.66 0 1.32 0 2 0 C3.6027832 2.0715332 3.6027832 2.0715332 5.55078125 5.05078125 C6.09361504 5.87344986 6.09361504 5.87344986 6.64741516 6.71273804 C7.44778333 7.92709481 8.24501844 9.14352058 9.03961182 10.36166382 C11.26606073 13.77393298 13.51593635 17.17075054 15.76171875 20.5703125 C16.25047485 21.31159897 16.73923096 22.05288544 17.24279785 22.81663513 C23.01104631 31.55523742 28.87790187 40.22706536 34.74188232 48.90158081 C45.55385267 64.89701012 56.32165664 80.92033901 67.00610352 97.0012207 C69.22257547 100.33474893 71.44294655 103.66565892 73.6640625 106.99609375 C77.03005151 112.04323851 80.39305779 117.09235503 83.7535553 122.14315796 C85.99442603 125.51086337 88.23630537 128.87789678 90.47827148 132.24487305 C91.62353573 133.96530499 92.76838847 135.68601094 93.9128418 137.40698242 C101.8972533 149.42134337 101.8972533 149.42134337 110.11108398 161.27905273 C114.99760391 168.3179909 119.69311397 175.48988 124.4375 182.625 C125.56174088 184.31387404 126.68608897 186.00267671 127.81054688 187.69140625 C130.54160145 191.79344905 133.2712031 195.89645502 136 200 C139.35555306 198.88148231 139.77357794 198.29866585 141.70703125 195.5 C142.20879883 194.78126709 142.71056641 194.06253418 143.22753906 193.32202148 C143.75057617 192.55575439 144.27361328 191.7894873 144.8125 191 C145.34713867 190.22922119 145.88177734 189.45844238 146.43261719 188.66430664 C150.01580012 183.48441284 153.56886073 178.28214861 157 173 C160.84190341 174.28063447 161.3485734 175.67582635 163.5 179.0625 C164.56734375 180.70992188 164.56734375 180.70992188 165.65625 182.390625 C166.22859375 183.27717773 166.22859375 183.27717773 166.8125 184.18164062 C168.82333903 187.26073789 170.91150307 190.2857599 173 193.3125 C173.4532666 193.97088867 173.9065332 194.62927734 174.37353516 195.30761719 C179.20904748 202.3218028 184.0849817 209.30790683 188.95507812 216.2980957 C193.69293395 223.10456918 198.38879866 229.93826671 203.06152344 236.78955078 C208.05889377 244.1072386 213.12247813 251.37823627 218.18823242 258.64868164 C224.25505434 267.35822851 230.27152759 276.10143817 236.27246094 284.85644531 C241.35734097 292.27270217 246.46458158 299.67233256 251.60913086 307.04736328 C258.74010724 317.27099152 265.78623524 327.54779951 272.77929688 337.86621094 C277.72945036 345.15961889 282.75411705 352.39607559 287.82592773 359.60522461 C294.07531226 368.50178708 300.17688987 377.49801619 306.28955078 386.48876953 C309.16180921 390.70573359 312.05507184 394.90815186 314.94921875 399.11010742 C317.3073832 402.53508119 319.659994 405.96369018 322.00390625 409.3984375 C328.06281685 418.27594843 334.16390577 427.12180504 340.3125 435.9375 C344.97688389 442.62664805 349.60210084 449.33029425 354.09375 456.13671875 C356.46520853 459.6987661 358.88568455 463.22551984 361.3125 466.75 C362.00351807 467.75426025 362.00351807 467.75426025 362.70849609 468.77880859 C365.1345759 472.30145965 367.56777169 475.81903666 370.0078125 479.33203125 C370.49854248 480.04069336 370.98927246 480.74935547 371.49487305 481.47949219 C372.42621994 482.82426317 373.35981714 484.16747974 374.29614258 485.50878906 C377.09937628 489.5610197 379.60957416 493.690578 382 498 C364.27482417 508.36586844 346.50235138 518.64716201 328.70898438 528.89550781 C326.51879286 530.15717785 324.32876985 531.41914044 322.13891602 532.68139648 C319.97843711 533.92655244 317.81747379 535.17086832 315.65600586 536.41430664 C310.15365725 539.58417888 304.66877267 542.78012654 299.20703125 546.01953125 C298.11213379 546.66656006 297.01723633 547.31358887 295.88916016 547.98022461 C293.80577113 549.21319565 291.72581649 550.45199465 289.64990234 551.69750977 C288.71742676 552.24850342 287.78495117 552.79949707 286.82421875 553.3671875 C285.60351685 554.09591064 285.60351685 554.09591064 284.3581543 554.83935547 C281.89393668 556.05220261 279.70523 556.58723087 277 557 C271.66816666 550.74508441 266.71146462 544.30957493 261.9375 537.625 C257.09477437 530.84532765 252.13157336 524.17465266 247.0625 517.5625 C241.9735221 510.92312099 236.94196412 504.24956922 232 497.5 C227.07447611 490.77494119 222.06651345 484.11946776 217 477.5 C211.93348216 470.8805265 206.92577059 464.22488213 202 457.5 C196.4316962 449.90022153 190.75419826 442.39010542 185.03125 434.90625 C179.86125366 428.14242049 174.74531019 421.33990756 169.64697266 414.52197266 C165.11306202 408.46605688 160.53299001 402.44677445 155.9375 396.4375 C150.84642216 389.77903867 145.82453423 383.07679386 140.875 376.3125 C135.78981601 369.36377905 130.56425909 362.5430633 125.24951172 355.76879883 C121.06528616 350.41735769 117.00815137 344.98427915 113 339.5 C107.75602903 332.32570587 102.37639835 325.27430248 96.8984375 318.27734375 C93.72042152 314.2169441 90.5784831 310.13688949 87.5 306 C82.57540567 299.38802139 77.49507506 292.89955321 72.42578125 286.3984375 C67.1325386 279.6089287 61.89681865 272.77552031 56.65625 265.9453125 C50.07724491 257.37978964 43.45011691 248.85224907 36.81445312 240.33056641 C33.87486661 236.55482732 30.93755105 232.77732274 28 229 C27.43007324 228.2673291 26.86014648 227.5346582 26.27294922 226.77978516 C23.23035076 222.86836246 20.18873268 218.95618209 17.1484375 215.04296875 C16.51679687 214.23021484 15.88515625 213.41746094 15.234375 212.58007812 C14.0283582 211.02821828 12.82261252 209.47614768 11.6171875 207.92382812 C10.79734375 206.86905273 10.79734375 206.86905273 9.9609375 205.79296875 C9.48446777 205.1796167 9.00799805 204.56626465 8.51708984 203.93432617 C6.69408515 201.60995118 4.84645612 199.30577055 3 197 C2.74266726 220.00076583 2.54888151 243.00129322 2.43006611 266.00320816 C2.37342324 276.68426986 2.29624589 287.36443548 2.17016602 298.04492188 C2.06028488 307.35764488 1.98950322 316.66971877 1.96502656 325.98307204 C1.95072507 330.9116542 1.91728851 335.83837994 1.83696938 340.76636505 C1.76186025 345.41267927 1.73935788 350.0563872 1.75581551 354.70325089 C1.75280856 356.40121546 1.73118211 358.09927425 1.68873978 359.79671097 C1.50107051 367.69500727 1.44968632 374.02532147 6.80889148 380.22804046 C9.10245973 382.59918884 11.55343076 384.78859524 14 387 C15.49129826 388.74316273 16.95566772 390.51025621 18.375 392.3125 C23.53886411 398.71900521 28.95148867 404.89839988 34.35351562 411.10351562 C38.42902525 415.79784521 42.46183847 420.52898741 46.50292969 425.25292969 C48.03286759 427.03835624 49.56670801 428.82036145 51.1015625 430.6015625 C52.13039623 431.79671328 53.15904399 432.99202417 54.1875 434.1875 C54.68306396 434.76338867 55.17862793 435.33927734 55.68920898 435.93261719 C59.64145044 440.54280025 63.47267609 445.23952952 67.2578125 449.98828125 C68.84725894 452.08336136 68.84725894 452.08336136 71 453 C71 444.75 71 436.5 71 428 C72.32 428 73.64 428 75 428 C76.81449454 429.94058653 78.32363843 431.80037359 79.875 433.9375 C80.84936022 435.22952834 81.82603056 436.51981694 82.8046875 437.80859375 C83.5795752 438.83509033 83.5795752 438.83509033 84.37011719 439.88232422 C87.15329703 443.49845692 90.0810589 446.99328033 93 450.5 C99.13018168 457.90179311 105.09665385 465.41685769 111 473 C117.29612684 481.0718982 123.66047442 489.07941882 130.1394043 497.00561523 C134.36777203 502.18895954 138.50674903 507.43742092 142.57421875 512.74804688 C144.87923291 515.8391909 144.87923291 515.8391909 148 518 C148 505.13 148 492.26 148 479 C152.64974263 480.16243566 153.21868248 481.07164164 156.0625 484.75 C156.84753906 485.74515625 157.63257813 486.7403125 158.44140625 487.765625 C158.85664551 488.29478516 159.27188477 488.82394531 159.69970703 489.36914062 C161.90326687 492.1328995 164.2046661 494.81242803 166.5 497.5 C170.62232944 502.348458 174.66994086 507.25164163 178.6875 512.1875 C181.26146392 515.31799666 183.87569086 518.41172461 186.5 521.5 C190.62101634 526.34959381 194.66991354 531.25160806 198.6875 536.1875 C201.7243277 539.8809391 204.81960955 543.52298486 207.91625977 547.16625977 C211.53455744 551.43061443 215.07220152 555.75618307 218.59765625 560.09765625 C220.41659217 562.29516745 222.25417095 564.46495326 224.12109375 566.62109375 C224.66000244 567.2437915 225.19891113 567.86648926 225.75415039 568.50805664 C226.80849054 569.72247736 227.8661042 570.93406641 228.92749023 572.14233398 C231.64975683 575.27666815 233.98638971 578.34262621 236 582 C221.89488417 590.55742619 207.65281457 598.86049532 193.34667969 607.07666016 C187.89361389 610.210542 182.44706016 613.35569521 177 616.5 C170.47773279 620.26375263 163.95486228 624.02644628 157.4296875 627.78515625 C145.94693103 634.40141117 134.48039099 641.04390011 123.03857422 647.73071289 C114.61430661 652.65051282 106.16446104 657.52522138 97.7109375 662.39453125 C90.4604851 666.57349128 83.22511731 670.77740506 76 675 C67.68248233 679.86102946 59.34796692 684.69145196 51 689.5 C40.48210614 695.55886168 29.9882125 701.65778683 19.5078125 707.78125 C18.61481445 708.296875 17.72181641 708.8125 16.80175781 709.34375 C14.78426712 710.53638305 12.79134396 711.77093056 10.81542969 713.03125 C9.76000977 713.69125 8.70458984 714.35125 7.6171875 715.03125 C6.18415283 715.95260742 6.18415283 715.95260742 4.72216797 716.89257812 C2 718 2 718 -0.65454102 717.29003906 C-1.42854248 716.86432617 -2.20254395 716.43861328 -3 716 C-4.03769531 715.44828125 -5.07539063 714.8965625 -6.14453125 714.328125 C-7.36930544 713.6391683 -8.59180371 712.94615638 -9.8125 712.25 C-10.49844238 711.86150879 -11.18438477 711.47301758 -11.89111328 711.07275391 C-19.11131202 706.9670267 -26.2791774 702.7708724 -33.44848633 698.57714844 C-40.94964423 694.19004216 -48.4694564 689.83644963 -56 685.5 C-64.3480486 680.69159346 -72.68243257 675.86094275 -81 671 C-92.53702664 664.25882776 -104.1085182 657.57833053 -115.68701172 650.90869141 C-156.30190245 627.50948612 -156.30190245 627.50948612 -169.6953125 619.66796875 C-179.59195439 613.87546087 -189.50527649 608.12192488 -199.5 602.5 C-213.22018097 594.77904 -226.7975577 586.81849597 -240.3719635 578.84487915 C-243.47686379 577.0211115 -246.5820547 575.19783947 -249.6875 573.375 C-250.3058371 573.0120282 -250.92417419 572.6490564 -251.56124878 572.27508545 C-260.91052679 566.78908601 -270.2974257 561.37310027 -279.71875 556.01171875 C-289.05800666 550.69451658 -298.35467403 545.30288685 -307.66064453 539.92773438 C-310.96932895 538.01770571 -314.27935039 536.1100164 -317.58984375 534.203125 C-330.22953622 526.9212148 -342.85652297 519.61850989 -355.44140625 512.2421875 C-359.03817371 510.13612398 -362.64886238 508.05872306 -366.27734375 506.0078125 C-367.48185181 505.32005737 -367.48185181 505.32005737 -368.71069336 504.6184082 C-370.19463666 503.7719101 -371.68349065 502.93394073 -373.17797852 502.10620117 C-375.125 500.98828125 -375.125 500.98828125 -378 499 C-378 494.9553713 -376.03328975 492.7101344 -373.8125 489.5 C-373.36471191 488.84128906 -372.91692383 488.18257812 -372.45556641 487.50390625 C-371.48245953 486.07468671 -370.50608615 484.64768704 -369.52685547 483.22265625 C-368.01217728 481.01772657 -366.50695845 478.80661751 -365.00390625 476.59375 C-358.4334257 466.93702444 -351.76895788 457.34677086 -345.08789062 447.76635742 C-340.47492479 441.14321999 -335.91086756 434.48863032 -331.375 427.8125 C-325.97873775 419.87095119 -320.51261839 411.98245372 -314.99438477 404.12524414 C-309.60832853 396.45396229 -304.29678687 388.73307095 -299 381 C-292.01017807 370.80029414 -284.97046238 360.63646567 -277.90356445 350.48999023 C-274.08506675 345.00505795 -270.27887301 339.512301 -266.5 334 C-262.02976302 327.4791956 -257.518449 320.98747615 -253 314.5 C-247.0684056 305.98257189 -241.1634843 297.44782543 -235.29443359 288.88720703 C-232.57245106 284.91871872 -229.84428222 280.95447812 -227.1171875 276.98950195 C-224.86072712 273.70828576 -222.60598178 270.42592375 -220.35546875 267.140625 C-215.31936564 259.79391555 -210.24180625 252.47826427 -205.125 245.1875 C-200.58334673 238.71538179 -196.07942076 232.21996145 -191.625 225.6875 C-184.83833116 215.73641834 -177.95796382 205.85157203 -171.0703125 195.97021484 C-167.60752781 191.00226219 -164.14691 186.0328031 -160.6875 181.0625 C-160.01630127 180.09820068 -159.34510254 179.13390137 -158.65356445 178.14038086 C-154.87633558 172.70976925 -151.11498199 167.26881806 -147.375 161.8125 C-143.15953197 155.66323523 -138.90037486 149.54525796 -134.625 143.4375 C-134.04153809 142.60387939 -133.45807617 141.77025879 -132.85693359 140.91137695 C-129.59478633 136.2571481 -126.31115441 131.61949444 -123 127 C-118.1437763 131.50432344 -114.73402695 136.60828402 -111.10546875 142.1171875 C-108.37229556 146.19769959 -105.60396902 149.65718815 -102 153 C-101.76949951 152.32163086 -101.53899902 151.64326172 -101.30151367 150.94433594 C-99.68018201 147.27649503 -97.48323037 144.14703756 -95.17578125 140.890625 C-94.1752967 139.4572856 -93.17616646 138.02300015 -92.17822266 136.58789062 C-91.65617249 135.83773682 -91.13412231 135.08758301 -90.59625244 134.31469727 C-87.92715808 130.44429102 -85.32850204 126.52769325 -82.73046875 122.609375 C-82.20081512 121.81161652 -81.6711615 121.01385803 -81.12545776 120.19192505 C-80.03683871 118.55191025 -78.94851363 116.91170029 -77.86047363 115.27130127 C-62.5714931 92.22961951 -62.5714931 92.22961951 -55.75 82.625 C-49.31743056 73.56650204 -43.17604663 64.32161553 -37.02966309 55.06793213 C-29.04450055 43.04593004 -20.9858182 31.07616495 -12.87670898 19.13745117 C-12.46251205 18.52737717 -12.04831512 17.91730316 -11.62156677 17.28874207 C-10.82560126 16.11721459 -10.02872946 14.94630223 -9.23085022 13.77607727 C-6.47142424 9.72256332 -3.79298266 5.62198695 -1.17382812 1.4765625 C-0.78646484 0.98929688 -0.39910156 0.50203125 0 0 Z " fill="#D78B56" transform="translate(510,162)"/>
<path d="M0 0 C3.81628832 1.54572776 5.97025743 3.88771245 8.6875 6.9375 C9.12537842 7.42766602 9.56325684 7.91783203 10.0144043 8.42285156 C13.64172615 12.51561753 17.09451618 16.74253059 20.53125 20.99609375 C25.02422836 26.4630247 29.70746063 31.76675791 34.35351562 37.10351562 C38.42902525 41.79784521 42.46183847 46.52898741 46.50292969 51.25292969 C48.03286759 53.03835624 49.56670801 54.82036145 51.1015625 56.6015625 C52.13039623 57.79671328 53.15904399 58.99202417 54.1875 60.1875 C54.68306396 60.76338867 55.17862793 61.33927734 55.68920898 61.93261719 C59.64145044 66.54280025 63.47267609 71.23952952 67.2578125 75.98828125 C68.84725894 78.08336136 68.84725894 78.08336136 71 79 C71 70.75 71 62.5 71 54 C72.32 54 73.64 54 75 54 C76.81449454 55.94058653 78.32363843 57.80037359 79.875 59.9375 C80.84936022 61.22952834 81.82603056 62.51981694 82.8046875 63.80859375 C83.3212793 64.4929248 83.83787109 65.17725586 84.37011719 65.88232422 C87.15329703 69.49845692 90.0810589 72.99328033 93 76.5 C99.13018168 83.90179311 105.09665385 91.41685769 111 99 C117.29612684 107.0718982 123.66047442 115.07941882 130.1394043 123.00561523 C134.36777203 128.18895954 138.50674903 133.43742092 142.57421875 138.74804688 C144.87923291 141.8391909 144.87923291 141.8391909 148 144 C148 131.13 148 118.26 148 105 C152.64974263 106.16243566 153.21868248 107.07164164 156.0625 110.75 C156.84753906 111.74515625 157.63257813 112.7403125 158.44140625 113.765625 C158.85664551 114.29478516 159.27188477 114.82394531 159.69970703 115.36914062 C161.90326687 118.1328995 164.2046661 120.81242803 166.5 123.5 C170.62232944 128.348458 174.66994086 133.25164163 178.6875 138.1875 C181.26146392 141.31799666 183.87569086 144.41172461 186.5 147.5 C190.62101634 152.34959381 194.66991354 157.25160806 198.6875 162.1875 C201.7243277 165.8809391 204.81960955 169.52298486 207.91625977 173.16625977 C211.53455744 177.43061443 215.07220152 181.75618307 218.59765625 186.09765625 C220.41659217 188.29516745 222.25417095 190.46495326 224.12109375 192.62109375 C224.66000244 193.2437915 225.19891113 193.86648926 225.75415039 194.50805664 C226.80849054 195.72247736 227.8661042 196.93406641 228.92749023 198.14233398 C231.64975683 201.27666815 233.98638971 204.34262621 236 208 C221.89488417 216.55742619 207.65281457 224.86049532 193.34667969 233.07666016 C187.89361389 236.210542 182.44706016 239.35569521 177 242.5 C170.47773279 246.26375263 163.95486228 250.02644628 157.4296875 253.78515625 C145.94693103 260.40141117 134.48039099 267.04390011 123.03857422 273.73071289 C114.61430661 278.65051282 106.16446104 283.52522138 97.7109375 288.39453125 C90.4604851 292.57349128 83.22511731 296.77740506 76 301 C67.68248233 305.86102946 59.34796692 310.69145196 51 315.5 C40.48210614 321.55886168 29.9882125 327.65778683 19.5078125 333.78125 C18.61481445 334.296875 17.72181641 334.8125 16.80175781 335.34375 C14.78426712 336.53638305 12.79134396 337.77093056 10.81542969 339.03125 C9.76000977 339.69125 8.70458984 340.35125 7.6171875 341.03125 C6.66183105 341.64548828 5.70647461 342.25972656 4.72216797 342.89257812 C2 344 2 344 -0.65454102 343.29003906 C-1.42854248 342.86432617 -2.20254395 342.43861328 -3 342 C-4.03769531 341.44828125 -5.07539063 340.8965625 -6.14453125 340.328125 C-7.36930544 339.6391683 -8.59180371 338.94615638 -9.8125 338.25 C-10.84141357 337.66726318 -10.84141357 337.66726318 -11.89111328 337.07275391 C-19.11131202 332.9670267 -26.2791774 328.7708724 -33.44848633 324.57714844 C-40.94964423 320.19004216 -48.4694564 315.83644963 -56 311.5 C-64.3480486 306.69159346 -72.68243257 301.86094275 -81 297 C-92.53702664 290.25882776 -104.1085182 283.57833053 -115.68701172 276.90869141 C-156.30190245 253.50948612 -156.30190245 253.50948612 -169.6953125 245.66796875 C-179.63239252 239.85193038 -189.58853914 234.08060341 -199.625 228.4375 C-202.44694075 226.84314868 -205.26764241 225.24664254 -208.08740234 223.6484375 C-210.10406649 222.50706983 -212.12276161 221.369286 -214.14306641 220.234375 C-217.25001125 218.48371553 -220.34474586 216.71308167 -223.4375 214.9375 C-224.3980127 214.40116943 -225.35852539 213.86483887 -226.34814453 213.31225586 C-227.22196777 212.80573486 -228.09579102 212.29921387 -228.99609375 211.77734375 C-229.77138428 211.33640381 -230.5466748 210.89546387 -231.34545898 210.44116211 C-231.89145752 209.96557861 -232.43745605 209.48999512 -233 209 C-233 204.37918368 -232.01539028 203.55207202 -228.88612366 200.39955139 C-228.2798967 199.80927658 -227.67366974 199.21900177 -227.04907227 198.61083984 C-226.41669647 197.97948624 -225.78432068 197.34813263 -225.13278198 196.69764709 C-223.03650795 194.60926899 -220.92653707 192.53530565 -218.81640625 190.4609375 C-217.36054576 189.01507556 -215.9056371 187.56825463 -214.4516449 186.12051392 C-210.61858791 182.30841642 -206.77412079 178.50804029 -202.92675781 174.71038818 C-196.76844679 168.62727546 -190.62863521 162.52547576 -184.48670769 156.42583084 C-182.33535476 154.29222966 -180.17987242 152.16287382 -178.02357483 150.03427124 C-176.70910879 148.7330202 -175.39468874 147.4317227 -174.08032227 146.13037109 C-173.47611954 145.53604782 -172.87191681 144.94172455 -172.24940491 144.32939148 C-169.25373246 141.44820399 -169.25373246 141.44820399 -167 138 C-166.34 138 -165.68 138 -165 138 C-164.34 136.68 -163.68 135.36 -163 134 C-162.34 134 -161.68 134 -161 134 C-160.75113981 133.42596152 -160.50227962 132.85192305 -160.24587822 132.26048946 C-158.81381489 129.66219052 -157.16862215 127.9256094 -155.06594849 125.83216858 C-154.2443927 125.00930862 -153.42283691 124.18644867 -152.5763855 123.33865356 C-151.67348785 122.44451752 -150.77059021 121.55038147 -149.84033203 120.62915039 C-148.88058528 119.67160567 -147.92128652 118.71361175 -146.96240234 117.75520325 C-144.89836971 115.69410183 -142.83122227 113.63619462 -140.76160049 111.58070564 C-137.48720128 108.32859433 -134.21992458 105.06938987 -130.95358276 101.80918884 C-125.78438209 96.65136765 -120.61053162 91.49823984 -115.43463504 86.34713882 C-106.17106712 77.12787797 -96.91302393 67.90307755 -87.66024292 58.67299074 C-84.41415699 55.43529719 -81.16528379 52.20043452 -77.91411996 48.96784031 C-75.88894102 46.95333294 -73.8658153 44.93677273 -71.84318542 42.91970634 C-70.46207113 41.54369703 -69.07841199 40.17024347 -67.69467163 38.796875 C-66.45387848 37.55835533 -66.45387848 37.55835533 -65.1880188 36.29481506 C-64.47161791 35.5819336 -63.75521702 34.86905214 -63.01710701 34.13456821 C-60.86511189 31.85725702 -58.93846586 29.46001485 -57 27 C-55.07736868 25.05386463 -53.24121269 23.6213028 -51 22 C-50.01 22.33 -49.02 22.66 -48 23 C-47.67 33.56 -47.34 44.12 -47 55 C-41.16605189 48.20516632 -35.33541958 41.4092275 -29.5625 34.5625 C-21.10868465 24.54909351 -12.56288251 14.61405365 -3.70703125 4.953125 C-1.84435643 2.90725172 -1.84435643 2.90725172 0 0 Z " fill="#5C462E" transform="translate(510,536)"/>
<path d="M0 0 C4.00037038 3.74989997 7.03028345 7.69523795 10.0625 12.25 C11.03286749 13.6842618 12.00425622 15.11783308 12.9765625 16.55078125 C13.47446289 17.28635254 13.97236328 18.02192383 14.48535156 18.77978516 C16.92863361 22.3612176 19.43125287 25.89996826 21.9375 29.4375 C22.43507813 30.14092529 22.93265625 30.84435059 23.4453125 31.5690918 C24.96265159 33.71335981 26.48113611 35.85681184 28 38 C34.24736669 46.81532731 40.46908338 55.64442109 46.57446289 64.55883789 C51.37114973 71.55722692 56.22398457 78.516297 61.07470703 85.47729492 C65.1162549 91.2806794 69.13279203 97.10009505 73.125 102.9375 C76.6285882 108.05699217 80.21139943 113.08505872 84 118 C82.56681927 121.10105743 80.84201394 123.68085385 78.76171875 126.38671875 C78.11332031 127.23363281 77.46492188 128.08054687 76.796875 128.953125 C76.10078125 129.85546875 75.4046875 130.7578125 74.6875 131.6875 C73.60662109 133.09708984 73.60662109 133.09708984 72.50390625 134.53515625 C71.03177893 136.45464382 69.5583115 138.37310436 68.08349609 140.29052734 C65.21472057 144.02121293 62.35729074 147.76051679 59.5 151.5 C58.44535388 152.8789379 57.39066566 154.2578436 56.3359375 155.63671875 C47.30164424 167.45183801 38.27696073 179.27219307 29.375 191.1875 C23.94971118 198.44760325 18.43156498 205.62807894 12.8515625 212.76977539 C8.15256204 218.78768766 3.5573393 224.8738692 -1 231 C-7.81896487 240.13292962 -14.68491715 249.22411411 -21.64892578 258.24707031 C-28.48925416 267.12194522 -35.28936956 276.02661153 -42 285 C-47.68643778 292.60367558 -53.45113529 300.14568361 -59.22558594 307.68261719 C-68.37904875 319.63702955 -77.48221351 331.62645142 -86.4934082 343.68847656 C-90.61969664 349.19743834 -94.81764995 354.64452775 -99.0625 360.0625 C-104.52059281 367.03031083 -109.80599193 374.11047558 -115.03588867 381.25073242 C-119.02769846 386.69635294 -123.09110117 392.07252592 -127.2265625 397.41015625 C-130.9284231 402.18996942 -134.58659941 407.0031937 -138.25 411.8125 C-138.92401855 412.69663574 -139.59803711 413.58077148 -140.29248047 414.49169922 C-144.21749439 419.64443341 -148.12275133 424.81122191 -152 430 C-155.80560234 429.41933397 -158.526577 428.33578266 -161.82421875 426.3671875 C-162.75685547 425.81611328 -163.68949219 425.26503906 -164.65039062 424.69726562 C-165.65263672 424.09591797 -166.65488281 423.49457031 -167.6875 422.875 C-169.85764035 421.59041478 -172.02822863 420.30658605 -174.19921875 419.0234375 C-175.88217041 418.02521973 -175.88217041 418.02521973 -177.59912109 417.00683594 C-183.04157321 413.79528128 -188.52112731 410.64887699 -194 407.5 C-203.36730837 402.10471489 -212.72325204 396.69056216 -222.04882812 391.22338867 C-227.29119203 388.15149981 -232.54983296 385.11329363 -237.8359375 382.1171875 C-239.50825439 381.16211304 -239.50825439 381.16211304 -241.21435547 380.18774414 C-243.3670774 378.95910265 -245.52481162 377.73919254 -247.68798828 376.52905273 C-248.64688965 375.97934814 -249.60579102 375.42964355 -250.59375 374.86328125 C-251.44646484 374.38157471 -252.29917969 373.89986816 -253.17773438 373.40356445 C-253.77908203 372.94038818 -254.38042969 372.47721191 -255 372 C-255 367.9553713 -253.03328975 365.7101344 -250.8125 362.5 C-250.36471191 361.84128906 -249.91692383 361.18257812 -249.45556641 360.50390625 C-248.48245953 359.07468671 -247.50608615 357.64768704 -246.52685547 356.22265625 C-245.01217728 354.01772657 -243.50695845 351.80661751 -242.00390625 349.59375 C-235.4334257 339.93702444 -228.76895788 330.34677086 -222.08789062 320.76635742 C-217.47492479 314.14321999 -212.91086756 307.48863032 -208.375 300.8125 C-202.97873775 292.87095119 -197.51261839 284.98245372 -191.99438477 277.12524414 C-186.60832853 269.45396229 -181.29678687 261.73307095 -176 254 C-169.01017807 243.80029414 -161.97046238 233.63646567 -154.90356445 223.48999023 C-151.08506675 218.00505795 -147.27887301 212.512301 -143.5 207 C-139.02976302 200.4791956 -134.518449 193.98747615 -130 187.5 C-124.0684056 178.98257189 -118.1634843 170.44782543 -112.29443359 161.88720703 C-109.57245106 157.91871872 -106.84428222 153.95447812 -104.1171875 149.98950195 C-101.86072712 146.70828576 -99.60598178 143.42592375 -97.35546875 140.140625 C-92.31936564 132.79391555 -87.24180625 125.47826427 -82.125 118.1875 C-77.58334673 111.71538179 -73.07942076 105.21996145 -68.625 98.6875 C-61.83833116 88.73641834 -54.95796382 78.85157203 -48.0703125 68.97021484 C-44.60752781 64.00226219 -41.14691 59.0328031 -37.6875 54.0625 C-36.6807019 52.61605103 -36.6807019 52.61605103 -35.65356445 51.14038086 C-31.87633558 45.70976925 -28.11498199 40.26881806 -24.375 34.8125 C-20.15953197 28.66323523 -15.90037486 22.54525796 -11.625 16.4375 C-11.04153809 15.60387939 -10.45807617 14.77025879 -9.85693359 13.91137695 C-6.59478633 9.2571481 -3.31115441 4.61949444 0 0 Z " fill="#2C3932" transform="translate(387,289)"/>
<path d="M0 0 C3.84190341 1.28063447 4.3485734 2.67582635 6.5 6.0625 C7.56734375 7.70992188 7.56734375 7.70992188 8.65625 9.390625 C9.0378125 9.98166016 9.419375 10.57269531 9.8125 11.18164062 C11.82333903 14.26073789 13.91150307 17.2857599 16 20.3125 C16.4532666 20.97088867 16.9065332 21.62927734 17.37353516 22.30761719 C22.20904748 29.3218028 27.0849817 36.30790683 31.95507812 43.2980957 C36.69293395 50.10456918 41.38879866 56.93826671 46.06152344 63.78955078 C51.05889377 71.1072386 56.12247813 78.37823627 61.18823242 85.64868164 C67.25505434 94.35822851 73.27152759 103.10143817 79.27246094 111.85644531 C84.35734097 119.27270217 89.46458158 126.67233256 94.60913086 134.04736328 C101.74010724 144.27099152 108.78623524 154.54779951 115.77929688 164.86621094 C120.72945036 172.15961889 125.75411705 179.39607559 130.82592773 186.60522461 C137.07531226 195.50178708 143.17688987 204.49801619 149.28955078 213.48876953 C152.16180921 217.70573359 155.05507184 221.90815186 157.94921875 226.11010742 C160.3073832 229.53508119 162.659994 232.96369018 165.00390625 236.3984375 C171.06281685 245.27594843 177.16390577 254.12180504 183.3125 262.9375 C187.97688389 269.62664805 192.60210084 276.33029425 197.09375 283.13671875 C199.46520853 286.6987661 201.88568455 290.22551984 204.3125 293.75 C205.00351807 294.75426025 205.00351807 294.75426025 205.70849609 295.77880859 C208.1345759 299.30145965 210.56777169 302.81903666 213.0078125 306.33203125 C213.49854248 307.04069336 213.98927246 307.74935547 214.49487305 308.47949219 C215.42621994 309.82426317 216.35981714 311.16747974 217.29614258 312.50878906 C220.09937628 316.5610197 222.60957416 320.690578 225 325 C207.27482417 335.36586844 189.50235138 345.64716201 171.70898438 355.89550781 C169.51879286 357.15717785 167.32876985 358.41914044 165.13891602 359.68139648 C162.97843711 360.92655244 160.81747379 362.17086832 158.65600586 363.41430664 C153.15365725 366.58417888 147.66877267 369.78012654 142.20703125 373.01953125 C141.11213379 373.66656006 140.01723633 374.31358887 138.88916016 374.98022461 C136.80577113 376.21319565 134.72581649 377.45199465 132.64990234 378.69750977 C131.71742676 379.24850342 130.78495117 379.79949707 129.82421875 380.3671875 C129.01041748 380.85300293 128.19661621 381.33881836 127.3581543 381.83935547 C124.89393668 383.05220261 122.70523 383.58723087 120 384 C114.66816666 377.74508441 109.71146462 371.30957493 104.9375 364.625 C100.09477437 357.84532765 95.13157336 351.17465266 90.0625 344.5625 C84.9735221 337.92312099 79.94196412 331.24956922 75 324.5 C70.07447611 317.77494119 65.06651345 311.11946776 60 304.5 C54.93348216 297.8805265 49.92577059 291.22488213 45 284.5 C39.4316962 276.90022153 33.75419826 269.39010542 28.03125 261.90625 C22.86125366 255.14242049 17.74531019 248.33990756 12.64697266 241.52197266 C8.11306202 235.46605688 3.53299001 229.44677445 -1.0625 223.4375 C-6.15357784 216.77903867 -11.17546577 210.07679386 -16.125 203.3125 C-21.21018399 196.36377905 -26.43574091 189.5430633 -31.75048828 182.76879883 C-35.93471384 177.41735769 -39.99184863 171.98427915 -44 166.5 C-49.23903501 159.33245877 -54.61317926 152.28734475 -60.08618164 145.29711914 C-64.13686659 140.12197924 -68.11609041 134.90477528 -72.01953125 129.6171875 C-73.34918448 127.86005206 -74.72301106 126.13555899 -76.13671875 124.4453125 C-76.79285156 123.65898437 -77.44898438 122.87265625 -78.125 122.0625 C-78.99511719 121.05896484 -78.99511719 121.05896484 -79.8828125 120.03515625 C-81 118 -81 118 -81.0078125 115.7265625 C-79.54935982 111.78082619 -77.22898631 108.6874961 -74.75 105.3125 C-74.2127832 104.56629395 -73.67556641 103.82008789 -73.12207031 103.05126953 C-71.42299255 100.69472255 -69.71247897 98.34682115 -68 96 C-65.91415679 93.12681536 -63.83190278 90.25104064 -61.75 87.375 C-61.21858398 86.6425708 -60.68716797 85.9101416 -60.13964844 85.15551758 C-55.68071517 78.99127251 -51.33189699 72.75397305 -47 66.5 C-39.60337491 55.82459479 -32.03652214 45.28398828 -24.38818359 34.78808594 C-16.04597127 23.33288355 -7.94255111 11.73603768 0 0 Z " fill="#35483D" transform="translate(667,335)"/>
<path d="M0 0 C8.18354482 8.11961088 15.02200541 17.28772458 21.98364258 26.44921875 C25.65390922 31.26967646 29.38782014 36.03099316 33.1875 40.75 C38.56035857 47.42428236 43.79888212 54.19141688 49 61 C54.63992674 68.35438952 60.30640734 75.68708665 66 83 C76.38412425 96.3407344 86.6460193 109.77235383 96.88574219 123.22412109 C98.97689501 125.96966469 101.07012636 128.71360998 103.1640625 131.45703125 C109.61911549 139.91632982 116.05807525 148.38597003 122.42724609 156.91015625 C126.53949827 162.40603437 130.70604424 167.85956928 134.875 173.3125 C139.9814806 179.99541306 145.02930102 186.71550427 150 193.5 C155.568407 201.09970473 161.24579987 208.60989214 166.96875 216.09375 C172.13874634 222.85757951 177.25468981 229.66009244 182.35302734 236.47802734 C186.88693883 242.53394426 191.4671121 248.55314659 196.0625 254.5625 C201.6933271 261.92922755 207.23220181 269.35603354 212.71118164 276.83618164 C217.07284182 282.77694663 221.52067292 288.64757781 226 294.5 C231.74371634 302.0056476 237.40205903 309.56687643 242.9921875 317.1875 C247.10415234 322.7921644 251.25916155 328.36225268 255.44213867 333.9140625 C258.2368675 337.62977621 261.00609132 341.36270591 263.75390625 345.11328125 C264.38748047 345.97759766 265.02105469 346.84191406 265.67382812 347.73242188 C266.90788868 349.41824814 268.13975682 351.10568208 269.36914062 352.79492188 C269.92923828 353.55998047 270.48933594 354.32503906 271.06640625 355.11328125 C271.56084229 355.79173096 272.05527832 356.47018066 272.56469727 357.16918945 C273.93887974 358.92203763 275.39059649 360.46341208 277 362 C276.06285156 362.47566406 275.12570312 362.95132812 274.16015625 363.44140625 C260.74327147 370.35354457 247.88290576 378.1491153 235 386 C227.29308183 378.37507032 220.15757842 370.31414471 213.34765625 361.8828125 C210.77184764 358.71983953 208.14294778 355.60682328 205.5 352.5 C201.37869662 347.65065425 197.33008057 342.7483847 193.3125 337.8125 C190.73853608 334.68200334 188.12430914 331.58827539 185.5 328.5 C181.37898366 323.65040619 177.33008646 318.74839194 173.3125 313.8125 C170.73853353 310.68200024 168.12417836 307.58838974 165.5 304.5 C152.3124151 288.96862266 152.3124151 288.96862266 149 284 C148.01 283.67 147.02 283.34 146 283 C146 295.87 146 308.74 146 322 C142.47672863 320.23836431 141.4182062 319.64741124 139.15234375 316.796875 C138.63526855 316.15347168 138.11819336 315.51006836 137.58544922 314.84716797 C137.04162598 314.15510254 136.49780273 313.46303711 135.9375 312.75 C135.36531738 312.03344238 134.79313477 311.31688477 134.20361328 310.57861328 C132.46111279 308.3919176 130.72932188 306.19712626 129 304 C128.03001059 302.77338794 127.05996255 301.54682224 126.08984375 300.3203125 C122.93466649 296.32139374 119.80026431 292.30634154 116.66601562 288.29101562 C111.34131666 281.4738463 105.96758053 274.7033374 100.5 268 C96.41489893 262.99160358 92.3628987 257.96120287 88.375 252.875 C87.93551025 252.31538574 87.49602051 251.75577148 87.04321289 251.17919922 C84.65909593 248.13737971 82.29340405 245.08235107 79.94140625 242.015625 C79.43883301 241.36480957 78.93625977 240.71399414 78.41845703 240.04345703 C77.44934282 238.78804993 76.48525723 237.52874085 75.52685547 236.26513672 C74.39756816 234.80635137 73.20425906 233.3975352 72 232 C71.34 232 70.68 232 70 232 C69.67 240.25 69.34 248.5 69 257 C64.87664277 254.93832138 62.81379086 252.72430036 60 249.25 C59.02010093 248.06593457 58.03961197 246.88235711 57.05859375 245.69921875 C56.30231689 244.78148682 56.30231689 244.78148682 55.53076172 243.84521484 C53.0768021 240.88715634 50.56965802 237.97546931 48.0625 235.0625 C47.05327594 233.88681272 46.04416193 232.71103096 45.03515625 231.53515625 C44.53387207 230.95137207 44.03258789 230.36758789 43.51611328 229.76611328 C40.51064566 226.26505808 37.50854185 222.76111655 34.50683594 219.25683594 C31.97314792 216.29948748 29.4365735 213.34470321 26.89453125 210.39453125 C21.6459781 204.29730056 16.45118246 198.17497765 11.42578125 191.890625 C9.17270469 189.04413386 9.17270469 189.04413386 6.83027744 187.14779854 C2.2794966 182.94989455 -0.44874962 179.49487728 -1.00044358 173.16773295 C-1.14846429 169.25085757 -1.10106144 165.35102752 -1.02172852 161.43310547 C-1.01918629 159.66810741 -1.0206218 157.90309985 -1.02571106 156.1381073 C-1.02828228 151.37147751 -0.97555603 146.60690641 -0.91254544 141.84075308 C-0.85609469 136.85074028 -0.85098211 131.86067469 -0.84031677 126.87039185 C-0.81239859 117.43191679 -0.73861899 107.99438548 -0.64817137 98.55632508 C-0.5474021 87.80673372 -0.49804738 77.05709612 -0.45291245 66.30714965 C-0.35896395 44.2042407 -0.20076938 22.10217992 0 0 Z " fill="#FBDEBD" transform="translate(512,358)"/>
<path d="M0 0 C0.24730483 23.25211505 0.46589437 46.50434171 0.65021229 69.75704479 C0.73646357 80.55345756 0.8321436 91.3496336 0.94995117 102.14575195 C1.05259714 111.55461688 1.13762302 120.96344696 1.20140952 130.37265855 C1.23580838 135.35577236 1.27908396 140.33845526 1.34345436 145.32127953 C1.40375244 150.01040816 1.44050501 154.69912958 1.45913696 159.38860321 C1.47014034 161.1104059 1.48977583 162.83217819 1.51865196 164.55377388 C1.55678643 166.90411423 1.5639116 169.25259171 1.56330872 171.60319519 C1.57529202 172.91859378 1.58727533 174.23399237 1.59962177 175.58925152 C0.84448669 179.8845856 -0.71331502 181.23626582 -4 184 C-10.22046973 190.57861798 -16.14158842 197.29862761 -21.8203125 204.3515625 C-23.97757399 206.97275119 -26.21311 209.49154281 -28.5 212 C-32.46765842 216.35542259 -36.20724455 220.8624565 -39.91796875 225.4375 C-42.55419802 228.68208987 -45.22244635 231.87525214 -48 235 C-48.33 235 -48.66 235 -49 235 C-49.33 224.11 -49.66 213.22 -50 202 C-55.42427291 204.71213646 -59.23973795 208.01324428 -63.11520386 212.58956909 C-67.31051238 217.42731453 -71.80415751 221.92954068 -76.34423828 226.44189453 C-77.74076818 227.83618301 -79.13729794 229.23047161 -80.53382277 230.62476516 C-82.02016367 232.10775709 -83.50774592 233.58949322 -84.99570084 235.07086563 C-88.10888335 238.17041686 -91.21815055 241.27387636 -94.32687378 244.37789917 C-100.92327563 250.96324937 -107.52391625 257.5443434 -114.125 264.125 C-121.26051196 271.23844784 -128.39526861 278.35264391 -135.52515209 285.47173393 C-138.61160376 288.55322388 -141.70047178 291.63226419 -144.79125619 294.70940804 C-146.25115525 296.163626 -147.70989139 297.61899861 -149.16812134 299.07489014 C-150.94026283 300.84417635 -152.71419158 302.61167507 -154.49029541 304.37698364 C-157.78905297 307.67544597 -161.02249362 310.93235947 -163.94284058 314.57394409 C-164.62170319 315.37454254 -165.3005658 316.17514099 -166 317 C-166.66 317 -167.32 317 -168 317 C-168.2047998 317.53011688 -168.40959961 318.06023376 -168.62060547 318.60641479 C-170.58026121 322.00689441 -173.29935999 324.56028968 -176.0703125 327.29736328 C-177.00227448 328.22976334 -177.00227448 328.22976334 -177.95306396 329.18099976 C-180.00567041 331.23221421 -182.06526902 333.27625432 -184.125 335.3203125 C-185.55268209 336.74426311 -186.97992225 338.16865694 -188.40673828 339.59347534 C-192.16299903 343.34210293 -195.92522508 347.0846877 -199.6887207 350.8260498 C-203.52004009 354.63693171 -207.34572651 358.453459 -211.171875 362.26953125 C-217.89122695 368.96973269 -224.61544301 375.66502091 -231.34326172 382.35671997 C-232.89719729 383.90278376 -234.44999533 385.44999533 -236 387 C-236.8156543 386.52167725 -237.63130859 386.04335449 -238.47167969 385.55053711 C-241.5580418 383.74069541 -244.64447646 381.93097755 -247.73095703 380.12133789 C-249.05552945 379.34469319 -250.38007465 378.56800206 -251.70458984 377.79125977 C-260.1302278 372.85022037 -268.56040606 367.91717809 -277 363 C-273.11355427 357.00129853 -269.00116925 351.28727809 -264.5625 345.6875 C-259.50388321 339.24502396 -254.52530412 332.75120417 -249.625 326.1875 C-244.32909856 319.09600143 -238.99575358 312.03500162 -233.625 305 C-229.50095173 299.59791235 -225.38079648 294.19422857 -221.3125 288.75 C-217.88434764 284.16403769 -214.41802317 279.60873442 -210.9375 275.0625 C-210.39182373 274.349729 -209.84614746 273.63695801 -209.28393555 272.90258789 C-208.72230713 272.16903076 -208.16067871 271.43547363 -207.58203125 270.6796875 C-197.73471487 257.81777496 -187.92666427 244.92859179 -178.22314453 231.95776367 C-174.07501912 226.41794163 -169.87449641 220.92381075 -165.640625 215.44921875 C-162.29833568 211.10450334 -159.0303353 206.70403744 -155.75 202.3125 C-150.20004686 194.88632821 -144.56098618 187.53738986 -138.85302734 180.23217773 C-134.15365422 174.21357654 -129.55638845 168.12782918 -125 162 C-118.09940795 152.7275693 -111.11015809 143.53501995 -103.99682617 134.42456055 C-100.11142774 129.44362476 -96.2892057 124.42185024 -92.515625 119.35546875 C-89.1704869 114.87707407 -85.7674167 110.44260349 -82.375 106 C-77.00415173 98.96506924 -71.67102515 91.90390541 -66.375 84.8125 C-61.61573361 78.43981739 -56.7848359 72.13231308 -51.875 65.875 C-47.22877225 59.95262225 -42.74661978 53.9402182 -38.375 47.8125 C-33.91857092 41.56691509 -29.29982891 35.51000354 -24.4597168 29.55761719 C-20.74705665 24.97930452 -17.19733684 20.29764498 -13.6875 15.5625 C-2.12646636 0 -2.12646636 0 0 0 Z " fill="#6F795C" transform="translate(511,357)"/>
<path d="M0 0 C0.37447201 18.32385414 0.65624371 36.64671011 0.82899475 54.97356892 C0.91135557 63.48409045 1.0235354 71.99222928 1.20703125 80.5012207 C1.36697465 87.92161266 1.46983513 95.34027911 1.50541592 102.76234692 C1.52620665 106.69012188 1.57469543 110.61296308 1.69168091 114.53914833 C2.37562819 138.39780454 2.37562819 138.39780454 -1.56244659 144.36915779 C-5.22413949 148.04900152 -9.3166772 150.27540546 -14.10209274 152.19203854 C-16.74966502 153.31914122 -18.94356151 154.92058103 -21.234375 156.64453125 C-21.98235352 157.16877686 -22.73033203 157.69302246 -23.50097656 158.2331543 C-24.2431543 158.75433838 -24.98533203 159.27552246 -25.75 159.8125 C-26.57725586 160.39233643 -27.40451172 160.97217285 -28.25683594 161.56958008 C-30.83836814 163.37904022 -33.41927303 165.18939163 -36 167 C-39.41607477 169.39667878 -42.83268723 171.79258672 -46.25 174.1875 C-47.50139771 175.06498901 -47.50139771 175.06498901 -48.77807617 175.96020508 C-53.20758084 179.06168564 -57.65350902 182.13610766 -62.12329102 185.17919922 C-71.31372316 191.43882882 -80.25642385 198.01455863 -89.16918945 204.66235352 C-90.74954087 205.81700686 -92.37148925 206.91432616 -94 208 C-83.50812077 205.74814253 -73.06341078 203.31583765 -62.633564 200.79293442 C-60.55607622 200.29047031 -58.47831757 199.78914098 -56.40048218 199.28811646 C-47.77556904 197.20783141 -47.77556904 197.20783141 -39.15405273 195.11352539 C-35.59476668 194.24605391 -32.03366375 193.38644214 -28.47120476 192.53209877 C-27.12487454 192.20766729 -25.77924525 191.88031228 -24.4343586 191.54994774 C-22.57076288 191.09250183 -20.70450171 190.64595588 -18.83813477 190.19995117 C-17.77990005 189.94332199 -16.72166534 189.68669281 -15.63136292 189.42228699 C-13 189 -13 189 -10 190 C-15.68579059 195.30872245 -21.36683484 200.56664182 -27.4375 205.4375 C-32.85412448 209.79741306 -37.91938296 214.47475879 -43 219.21484375 C-45.95876022 221.97346339 -48.98395085 224.64611326 -52.04296875 227.29296875 C-54.3855915 229.33633431 -56.69273422 231.41680859 -59 233.5 C-64.34789986 238.32121275 -69.74302215 243.07894027 -75.22265625 247.75 C-80.78122479 252.49079323 -86.30937974 257.24086217 -91.6875 262.1875 C-95.11898144 265.33926825 -98.61146509 268.34024381 -102.25 271.25 C-106.86884544 274.97146976 -111.19386487 278.92765278 -115.5 283 C-120.69293404 287.91014726 -125.9638651 292.5674686 -131.5546875 297.0234375 C-134.61954537 299.50078268 -137.53721507 302.12247785 -140.44140625 304.78515625 C-142 306 -142 306 -144 306 C-144 294.78 -144 283.56 -144 272 C-147.63 275.3 -151.26 278.6 -155 282 C-159.0625 285.5625 -159.0625 285.5625 -160.97265625 287.22265625 C-163.33489173 289.29359487 -165.66795853 291.39512848 -168 293.5 C-171.62023723 296.76704335 -175.26983565 299.99520776 -178.94921875 303.1953125 C-181.26088797 305.22958141 -183.5353143 307.3022231 -185.8125 309.375 C-189.25378205 312.48528851 -192.76321298 315.46478312 -196.375 318.375 C-200.92860712 322.05636689 -205.23582516 325.92774473 -209.51904297 329.91357422 C-212.75176204 332.90412641 -216.06687666 335.73771685 -219.5 338.5 C-224.59880855 342.60553416 -229.40028044 346.96826551 -234.19921875 351.4140625 C-247.83081571 364 -247.83081571 364 -252 364 C-251.43267807 359.85253638 -250.08751959 357.20790407 -247.75390625 353.75390625 C-247.08657471 352.7589917 -246.41924316 351.76407715 -245.73168945 350.73901367 C-245.01585693 349.69076416 -244.30002441 348.64251465 -243.5625 347.5625 C-242.83184326 346.48009033 -242.10118652 345.39768066 -241.34838867 344.2824707 C-236.82550271 337.60592478 -232.21402432 331.00369885 -227.484375 324.47265625 C-224.43517541 320.24195421 -221.50150706 315.93263717 -218.5625 311.625 C-218.00852539 310.81305176 -217.45455078 310.00110352 -216.88378906 309.16455078 C-215.78032653 307.54624693 -214.67713313 305.92775952 -213.57421875 304.30908203 C-206.52195724 293.96474435 -199.38680777 283.68094555 -192.19824219 273.4309082 C-186.74859969 265.65477955 -181.36593282 257.83402093 -176 250 C-169.01017807 239.80029414 -161.97046238 229.63646567 -154.90356445 219.48999023 C-151.08506675 214.00505795 -147.27887301 208.512301 -143.5 203 C-139.02976302 196.4791956 -134.518449 189.98747615 -130 183.5 C-124.0684056 174.98257189 -118.1634843 166.44782543 -112.29443359 157.88720703 C-109.57245106 153.91871872 -106.84428222 149.95447812 -104.1171875 145.98950195 C-101.86072712 142.70828576 -99.60598178 139.42592375 -97.35546875 136.140625 C-92.31936564 128.79391555 -87.24180625 121.47826427 -82.125 114.1875 C-77.58334673 107.71538179 -73.07942076 101.21996145 -68.625 94.6875 C-61.83833116 84.73641834 -54.95796382 74.85157203 -48.0703125 64.97021484 C-44.60752781 60.00226219 -41.14691 55.0328031 -37.6875 50.0625 C-36.6807019 48.61605103 -36.6807019 48.61605103 -35.65356445 47.14038086 C-31.87633089 41.70976251 -28.11581012 36.26825476 -24.375 30.8125 C-23.07313721 28.91910734 -21.77045971 27.0262791 -20.46728516 25.13378906 C-19.38965583 23.56665424 -18.31410967 21.99808642 -17.23974609 20.42871094 C-15.35374196 17.67716823 -13.45884381 14.93192409 -11.5625 12.1875 C-10.97065918 11.32036377 -10.37881836 10.45322754 -9.76904297 9.55981445 C-9.20717285 8.74988037 -8.64530273 7.93994629 -8.06640625 7.10546875 C-7.57084229 6.38512451 -7.07527832 5.66478027 -6.56469727 4.92260742 C-2.55847619 0 -2.55847619 0 0 0 Z " fill="#1F2627" transform="translate(387,293)"/>
<path d="M0 0 C0.99 0.33 1.98 0.66 3 1 C2.67 33.67 2.34 66.34 2 100 C1.34 100 0.68 100 0 100 C0.07347656 100.74636719 0.14695312 101.49273438 0.22265625 102.26171875 C-0.06029215 105.74148768 -1.00592255 106.50818446 -3.5625 108.8125 C-8.32144694 113.27768478 -12.53316724 118.07202508 -16.734375 123.05859375 C-18.13886715 124.72057612 -19.56712309 126.36242638 -21 128 C-21.33 128 -21.66 128 -22 128 C-23.11796696 113.66606646 -23.10772918 99.37107285 -23 85 C-28.48412602 89.56785146 -28.48412602 89.56785146 -33.375 94.75 C-36.03742964 97.87805635 -38.74368764 100.95404126 -41.5 104 C-44.22855564 107.02453456 -46.94347414 110.05868119 -49.625 113.125 C-50.17800781 113.75664063 -50.73101562 114.38828125 -51.30078125 115.0390625 C-52.51644848 116.44197043 -53.72095817 117.85457771 -54.91796875 119.2734375 C-55.54316406 120.00820313 -56.16835938 120.74296875 -56.8125 121.5 C-57.37582031 122.1703125 -57.93914062 122.840625 -58.51953125 123.53125 C-60 125 -60 125 -62 125 C-65.3 117.74 -68.6 110.48 -72 103 C-75.16299726 102.67262638 -75.16299726 102.67262638 -77.453125 105.125 C-78.39388693 106.07501974 -79.32570259 107.03395403 -80.25 108 C-80.99286255 108.76038574 -80.99286255 108.76038574 -81.75073242 109.53613281 C-84.92720603 112.81166053 -87.97056129 116.1784766 -90.93359375 119.6484375 C-93.84212211 122.95833178 -96.86084432 126.16140729 -99.875 129.375 C-104.56938138 134.383611 -109.21790723 139.42467173 -113.79296875 144.54296875 C-116.34185781 147.38058152 -118.91887225 150.19176495 -121.5 153 C-124.85298191 156.64922466 -128.18998409 160.31169656 -131.5 164 C-134.81001696 167.68830461 -138.1471196 171.35068121 -141.5 175 C-145.61000307 179.47388368 -149.68883764 183.97432173 -153.74609375 188.49609375 C-156.19450473 191.21607891 -158.65900079 193.92095561 -161.125 196.625 C-163.90812892 199.68131949 -166.66979803 202.74957248 -169.375 205.875 C-173.01482278 210.06683381 -176.79607086 214.12377114 -180.57080078 218.19360352 C-184.46006501 222.39452728 -188.27188031 226.65490275 -192 231 C-196.19887599 230.40633106 -199.17730954 228.96667114 -202.82421875 226.83203125 C-203.93603516 226.18556641 -205.04785156 225.53910156 -206.19335938 224.87304688 C-207.3581425 224.18631593 -208.52285572 223.49946639 -209.6875 222.8125 C-210.82123047 222.15185547 -211.95496094 221.49121094 -213.12304688 220.81054688 C-215.35932339 219.50487073 -217.59105698 218.19137842 -219.81787109 216.86962891 C-221.88274285 215.65643358 -223.96330105 214.46940843 -226.06103516 213.31396484 C-227.43267822 212.54560303 -227.43267822 212.54560303 -228.83203125 211.76171875 C-230.04403198 211.10175903 -230.04403198 211.10175903 -231.28051758 210.4284668 C-231.84794678 209.95707275 -232.41537598 209.48567871 -233 209 C-233 204.37918368 -232.01539028 203.55207202 -228.88612366 200.39955139 C-228.2798967 199.80927658 -227.67366974 199.21900177 -227.04907227 198.61083984 C-226.41669647 197.97948624 -225.78432068 197.34813263 -225.13278198 196.69764709 C-223.03650795 194.60926899 -220.92653707 192.53530565 -218.81640625 190.4609375 C-217.36054576 189.01507556 -215.9056371 187.56825463 -214.4516449 186.12051392 C-210.61858791 182.30841642 -206.77412079 178.50804029 -202.92675781 174.71038818 C-196.76844679 168.62727546 -190.62863521 162.52547576 -184.48670769 156.42583084 C-182.33535476 154.29222966 -180.17987242 152.16287382 -178.02357483 150.03427124 C-176.70910879 148.7330202 -175.39468874 147.4317227 -174.08032227 146.13037109 C-173.47611954 145.53604782 -172.87191681 144.94172455 -172.24940491 144.32939148 C-169.25373246 141.44820399 -169.25373246 141.44820399 -167 138 C-166.34 138 -165.68 138 -165 138 C-164.34 136.68 -163.68 135.36 -163 134 C-162.34 134 -161.68 134 -161 134 C-160.75113981 133.42596152 -160.50227962 132.85192305 -160.24587822 132.26048946 C-158.81381489 129.66219052 -157.16862215 127.9256094 -155.06594849 125.83216858 C-154.2443927 125.00930862 -153.42283691 124.18644867 -152.5763855 123.33865356 C-151.67348785 122.44451752 -150.77059021 121.55038147 -149.84033203 120.62915039 C-148.88058528 119.67160567 -147.92128652 118.71361175 -146.96240234 117.75520325 C-144.89836971 115.69410183 -142.83122227 113.63619462 -140.76160049 111.58070564 C-137.48720128 108.32859433 -134.21992458 105.06938987 -130.95358276 101.80918884 C-125.78438209 96.65136765 -120.61053162 91.49823984 -115.43463504 86.34713882 C-106.17106712 77.12787797 -96.91302393 67.90307755 -87.66024292 58.67299074 C-84.41415699 55.43529719 -81.16528379 52.20043452 -77.91411996 48.96784031 C-75.88894102 46.95333294 -73.8658153 44.93677273 -71.84318542 42.91970634 C-70.46207113 41.54369703 -69.07841199 40.17024347 -67.69467163 38.796875 C-66.45387848 37.55835533 -66.45387848 37.55835533 -65.1880188 36.29481506 C-64.47161791 35.5819336 -63.75521702 34.86905214 -63.01710701 34.13456821 C-60.86511189 31.85725702 -58.93846586 29.46001485 -57 27 C-55.07736868 25.05386463 -53.24121269 23.6213028 -51 22 C-50.01 22.33 -49.02 22.66 -48 23 C-47.67 33.56 -47.34 44.12 -47 55 C-41.16605189 48.20516632 -35.33541958 41.4092275 -29.5625 34.5625 C-21.10868465 24.54909351 -12.56288251 14.61405365 -3.70703125 4.953125 C-1.84435643 2.90725172 -1.84435643 2.90725172 0 0 Z " fill="#1F2626" transform="translate(510,536)"/>
<path d="M0 0 C0.66 0 1.32 0 2 0 C2.2104961 18.61959807 2.3690729 37.23895382 2.46630955 55.85949612 C2.51266411 64.50593848 2.57582911 73.15164041 2.67895508 81.79760742 C2.76882599 89.33589611 2.82676256 96.87364846 2.84679645 104.412458 C2.85850307 108.40238654 2.88589465 112.39078114 2.95157051 116.3802166 C3.01297314 120.14078588 3.03144457 123.89920002 3.01796913 127.66022301 C3.02159989 129.68769307 3.06987539 131.71493177 3.11978149 133.74179077 C3.05151662 140.49551252 2.506317 144.27668407 -2.36463928 149.16346741 C-3.89859059 150.45568736 -5.44293044 151.73573206 -7 153 C-8.0903374 154.18327513 -9.15884662 155.38772561 -10.1875 156.625 C-13.52764713 160.51032058 -17.0003614 164.25895737 -20.5 168 C-21.09651367 168.63768311 -21.69302734 169.27536621 -22.30761719 169.93237305 C-25.53217377 173.37493141 -28.76308948 176.81146972 -31.99609375 180.24609375 C-32.65480469 180.94669922 -33.31351562 181.64730469 -33.9921875 182.36914062 C-35.24737345 183.70372087 -36.50379424 185.03714133 -37.76171875 186.36914062 C-41.38817269 190.22425371 -44.91480764 194.15073762 -48.38647461 198.14575195 C-50.50328466 200.57836995 -52.65450094 202.97890297 -54.8125 205.375 C-55.56144531 206.20773437 -56.31039062 207.04046875 -57.08203125 207.8984375 C-58.35657596 209.29498547 -59.66306125 210.66306125 -61 212 C-61.6084375 211.11183594 -62.216875 210.22367188 -62.84375 209.30859375 C-73.87175222 193.22940142 -84.95603149 177.18518392 -96.28295898 161.31469727 C-98.67257715 157.95157856 -100.93660988 154.5783709 -103 151 C-102.34 151 -101.68 151 -101 151 C-100.65424927 149.98244629 -100.65424927 149.98244629 -100.30151367 148.94433594 C-98.68018201 145.27649503 -96.48323037 142.14703756 -94.17578125 138.890625 C-93.1752967 137.4572856 -92.17616646 136.02300015 -91.17822266 134.58789062 C-90.65617249 133.83773682 -90.13412231 133.08758301 -89.59625244 132.31469727 C-86.92715808 128.44429102 -84.32850204 124.52769325 -81.73046875 120.609375 C-81.20081512 119.81161652 -80.6711615 119.01385803 -80.12545776 118.19192505 C-79.03683871 116.55191025 -77.94851363 114.91170029 -76.86047363 113.27130127 C-61.5714931 90.22961951 -61.5714931 90.22961951 -54.75 80.625 C-48.80842042 72.25792569 -43.11558443 63.73436602 -37.4375 55.1875 C-29.8175461 43.71798089 -22.16132078 32.27488856 -14.4375 20.875 C-13.99429413 20.2201059 -13.55108826 19.56521179 -13.0944519 18.89047241 C-10.40666232 14.91982133 -7.7067813 10.95772667 -5 7 C-4.1958667 5.80552246 -4.1958667 5.80552246 -3.37548828 4.58691406 C-2.30171051 3.02142822 -1.16099695 1.50194231 0 0 Z " fill="#9D6941" transform="translate(509,164)"/>
<path d="M0 0 C0.99 0 1.98 0 3 0 C3.1622565 13.69960987 3.28660391 27.39899081 3.3626852 41.09936619 C3.39920245 47.46120223 3.44872773 53.82238045 3.52807617 60.18383789 C3.60418604 66.32414645 3.64600163 72.46382268 3.6641407 78.60456657 C3.67706557 80.94618624 3.70230551 83.28777164 3.7401104 85.62912178 C3.79100191 88.91179037 3.7979204 92.19185331 3.79467773 95.47485352 C3.83242813 96.92387054 3.83242813 96.92387054 3.87094116 98.40216064 C3.81614316 103.53605407 3.28829897 106.28770337 -0.4080658 109.99107361 C-1.59816825 111.00259253 -2.79485453 112.00645143 -4 113 C-5.4469491 114.7039073 -6.86688559 116.43138032 -8.25 118.1875 C-12.4483795 123.40323426 -16.89328563 128.31973713 -21.44140625 133.2265625 C-23.51828512 135.47783577 -25.55588699 137.74899323 -27.5625 140.0625 C-33.18533674 146.54098581 -38.883441 152.98186839 -45 159 C-48.7504827 157.7498391 -49.39447787 156.43950819 -51.6875 153.25 C-52.47916381 152.16441176 -53.27225335 151.07986245 -54.06640625 149.99609375 C-54.51902832 149.37589355 -54.97165039 148.75569336 -55.43798828 148.11669922 C-58.61594244 143.81021868 -61.87750791 139.56662105 -65.125 135.3125 C-65.79362061 134.43432617 -66.46224121 133.55615234 -67.15112305 132.65136719 C-67.80508057 131.79317383 -68.45903809 130.93498047 -69.1328125 130.05078125 C-69.76993164 129.20854004 -70.40705078 128.36629883 -71.06347656 127.49853516 C-72.36893473 125.81421104 -73.71078092 124.15754983 -75.08496094 122.52880859 C-75.7349707 121.74973145 -76.38498047 120.9706543 -77.0546875 120.16796875 C-77.64491699 119.48371826 -78.23514648 118.79946777 -78.84326172 118.09448242 C-80 116 -80 116 -79.82568359 113.46289062 C-79.02898408 111.08645517 -78.19888206 109.44360342 -76.734375 107.42578125 C-76.26354492 106.76819824 -75.79271484 106.11061523 -75.30761719 105.43310547 C-74.53659668 104.38340576 -74.53659668 104.38340576 -73.75 103.3125 C-73.2127832 102.56629395 -72.67556641 101.82008789 -72.12207031 101.05126953 C-70.42299255 98.69472255 -68.71247897 96.34682115 -67 94 C-64.91415679 91.12681536 -62.83190278 88.25104064 -60.75 85.375 C-60.21858398 84.6425708 -59.68716797 83.9101416 -59.13964844 83.15551758 C-54.68071517 76.99127251 -50.33189699 70.75397305 -46 64.5 C-39.63360701 55.31150874 -33.15749806 46.21285248 -26.58105469 37.17382812 C-24.40914988 34.18762671 -22.2425052 31.1976461 -20.07836914 28.20581055 C-18.99553996 26.70892528 -17.91141922 25.21297335 -16.82592773 23.71801758 C-14.04229476 19.87383188 -11.30353044 16.00544221 -8.62109375 12.08984375 C-7.80330444 10.90370483 -7.80330444 10.90370483 -6.96899414 9.69360352 C-5.92696249 8.17787759 -4.89321113 6.65641686 -3.86889648 5.12866211 C-2.65361333 3.36547949 -1.33515515 1.67424217 0 0 Z " fill="#1F2626" transform="translate(666,337)"/>
<path d="M0 0 C0.66 0 1.32 0 2 0 C3.37212301 1.53195272 4.6715446 3.12921081 5.9375 4.75 C9.36601162 9.03978024 12.89077834 13.16187396 16.625 17.1875 C20.23325622 21.08112354 23.79039283 25.00646553 27.265625 29.01953125 C29.27264538 31.31133155 31.32402851 33.55996752 33.375 35.8125 C36.48528851 39.25378205 39.46478312 42.76321298 42.375 46.375 C45.69184928 50.48323788 49.15333986 54.38996334 52.75 58.25 C60.35795763 66.47078451 60.35795763 66.47078451 63 71 C62.609375 73.1875 62.609375 73.1875 62 75 C57.52785025 74.47119021 54.47475818 73.39738747 50.6484375 71.04296875 C49.64159912 70.43050293 48.63476074 69.81803711 47.59741211 69.18701172 C46.53401611 68.52717285 45.47062012 67.86733398 44.375 67.1875 C42.13420478 65.81886273 39.8933181 64.4503752 37.65234375 63.08203125 C36.53585449 62.3957666 35.41936523 61.70950195 34.26904297 61.00244141 C29.51385679 58.08966792 24.72612001 55.2323411 19.9375 52.375 C18.38351203 51.44632003 16.83009399 50.51668547 15.27734375 49.5859375 C14.56304199 49.16280273 13.84874023 48.73966797 13.11279297 48.30371094 C11.66178547 47.4083585 10.2393323 46.46555125 8.84423828 45.48535156 C8.15442871 45.00807617 7.46461914 44.53080078 6.75390625 44.0390625 C6.15006104 43.60029785 5.54621582 43.1615332 4.92407227 42.70947266 C2.93319076 41.75964364 2.93319076 41.75964364 0.57128906 42.69970703 C-1.96989406 43.98477552 -4.44090584 45.32009308 -6.89453125 46.765625 C-7.83901123 47.31951904 -8.78349121 47.87341309 -9.7565918 48.4440918 C-10.7650415 49.0400415 -11.77349121 49.63599121 -12.8125 50.25 C-14.96087144 51.51183122 -17.10931102 52.77354644 -19.2578125 54.03515625 C-20.91731934 55.01186279 -20.91731934 55.01186279 -22.61035156 56.00830078 C-28.12720208 59.24990742 -33.65803409 62.46747689 -39.1875 65.6875 C-41.16038845 66.8368411 -43.13306045 67.98655385 -45.10546875 69.13671875 C-45.93199951 69.61842529 -46.75853027 70.10013184 -47.61010742 70.59643555 C-49.30626779 71.59257672 -50.97769425 72.63137649 -52.63012695 73.69848633 C-55 75 -55 75 -57.8125 74.6875 C-58.534375 74.460625 -59.25625 74.23375 -60 74 C-59.58878639 69.11013386 -57.16804309 66.54998453 -53.875 63.1875 C-52.86390662 62.12173534 -51.85348915 61.05532904 -50.84375 59.98828125 C-50.35261719 59.47475098 -49.86148437 58.9612207 -49.35546875 58.43212891 C-47.64344294 56.62327743 -46.00267234 54.75987528 -44.375 52.875 C-41.83309699 49.93970724 -39.23919803 47.05861059 -36.625 44.1875 C-33.55253227 40.78916448 -30.61557378 37.32409477 -27.75 33.75 C-23.10206867 28.00124282 -18.0909917 22.64039918 -13.03515625 17.25390625 C-10.03481173 14.05347701 -7.12749081 10.7813817 -4.26953125 7.453125 C-3.22662089 6.25939375 -2.12086045 5.12086045 -1 4 C-0.3574765 1.93125966 -0.3574765 1.93125966 0 0 Z " fill="#DBA779" transform="translate(510,637)"/>
<path d="M0 0 C0.66 0 1.32 0 2 0 C3.37212301 1.53195272 4.6715446 3.12921081 5.9375 4.75 C9.36601162 9.03978024 12.89077834 13.16187396 16.625 17.1875 C20.23325622 21.08112354 23.79039283 25.00646553 27.265625 29.01953125 C29.27264538 31.31133155 31.32402851 33.55996752 33.375 35.8125 C36.48528851 39.25378205 39.46478312 42.76321298 42.375 46.375 C45.69184928 50.48323788 49.15333986 54.38996334 52.75 58.25 C60.35795763 66.47078451 60.35795763 66.47078451 63 71 C62.609375 73.1875 62.609375 73.1875 62 75 C57.52785025 74.47119021 54.47475818 73.39738747 50.6484375 71.04296875 C49.64167969 70.4305835 48.63492188 69.81819824 47.59765625 69.18725586 C46.53417969 68.52733643 45.47070312 67.86741699 44.375 67.1875 C42.13293268 65.81751164 39.89074351 64.44772266 37.6484375 63.078125 C36.53178711 62.39169922 35.41513672 61.70527344 34.26464844 60.99804688 C28.75246894 57.62445452 23.19221914 54.33141825 17.63427734 51.03393555 C16.14725839 50.14516293 14.67271437 49.23512051 13.21264648 48.30273438 C11.00730671 46.92506996 11.00730671 46.92506996 8.46118164 46.00976562 C5.46852361 44.64041832 3.95780541 43.67378542 2 41 C0.47891586 34.72081892 1.16040476 28.01852244 1.4375 21.625 C1.4826712 19.82171389 1.52373122 18.0183198 1.56054688 16.21484375 C1.65947044 11.80722369 1.81459165 7.40479527 2 3 C1.34 3 0.68 3 0 3 C0 2.01 0 1.02 0 0 Z " fill="#F9DABA" transform="translate(510,637)"/>
<path d="M0 0 C0.33 0.99 0.66 1.98 1 3 C-1.31 5.31 -3.62 7.62 -6 10 C-6.66 9.67 -7.32 9.34 -8 9 C-5.36 6.03 -2.72 3.06 0 0 Z " fill="#797A55" transform="translate(509,358)"/>
<path d="M0 0 C0.66 0 1.32 0 2 0 C2.99 1.98 3.98 3.96 5 6 C4.01 6 3.02 6 2 6 C1.67 6.99 1.34 7.98 1 9 C1 6.69 1 4.38 1 2 C0.34 1.67 -0.32 1.34 -1 1 C-0.67 0.67 -0.34 0.34 0 0 Z " fill="#C38A60" transform="translate(510,162)"/>
</svg>
